<svg width="66" height="35" viewBox="0 0 66 35" fill="none" xmlns="http://www.w3.org/2000/svg">
<g clip-path="url(#clip0_15107_146747)">
<path d="M44.9086 0.000488281V24.8086H40.1816V0.000488281H44.9086Z" fill="white"/>
<path fill-rule="evenodd" clip-rule="evenodd" d="M65.5964 14.8189C65.5964 15.288 65.5401 15.8245 65.4287 16.4277H51.8173H47.2206C47.2011 16.1327 47.1912 15.8308 47.1912 15.5226C47.1912 13.5782 47.5819 11.8852 48.3645 10.4436C49.1466 9.00201 50.2416 7.90118 51.6501 7.14121C53.058 6.38175 54.6669 6.00146 56.4777 6.00146C58.3101 6.00146 59.9136 6.38175 61.2884 7.14121C62.6628 7.90113 63.7246 8.94619 64.473 10.2758C65.222 11.6059 65.5964 13.1201 65.5964 14.8189V14.8189ZM51.8946 13.6213H60.8303C60.7572 12.4569 60.3628 11.5485 59.6454 10.8964C58.7849 10.1138 57.7289 9.72304 56.4776 9.72304C55.2033 9.72304 54.1309 10.1138 53.2589 10.8964C52.5325 11.5486 52.0776 12.4569 51.8946 13.6213H51.8946Z" fill="white"/>
<path fill-rule="evenodd" clip-rule="evenodd" d="M52.1036 18.2815C52.3276 19.0284 52.679 19.6284 53.1586 20.0818C53.9854 20.8644 55.0136 21.2552 56.2427 21.2552C57.3382 21.2552 58.2487 20.987 58.975 20.4505C59.6992 19.9167 60.162 19.193 60.3646 18.2815H65.3594C65.1133 19.5738 64.5884 20.733 63.7863 21.758C62.9816 22.7862 61.9476 23.5909 60.6849 24.1721C59.4221 24.7532 58.0199 25.0436 56.4778 25.0436C54.667 25.0436 53.0582 24.658 51.6502 23.887C50.2418 23.116 49.1468 22.0152 48.3647 20.5846C47.9786 19.8793 47.6883 19.112 47.4927 18.2815H52.1036Z" fill="#FF6600"/>
<path fill-rule="evenodd" clip-rule="evenodd" d="M37.8667 16.9098V6.30908H33.2586V16.3826C33.2586 17.8314 32.8852 18.9562 32.1393 19.757C31.3926 20.5577 30.3721 20.9586 29.0771 20.9586C27.7601 20.9586 26.7067 20.5303 25.9169 19.6746C25.1271 18.8189 24.7317 17.5898 24.7317 15.9873V6.30908H20.0889V16.9959C20.5767 22.1054 23.9804 25.1017 29.0633 25.0816C34.1601 25.0615 37.8667 22.2207 37.8667 16.9098Z" fill="white"/>
<path fill-rule="evenodd" clip-rule="evenodd" d="M17.7785 16.9094V16.2278V6.30908H13.1702V16.2278V16.3825C13.1702 17.8309 12.7973 18.9559 12.051 19.7574C11.3047 20.5574 10.2839 20.9582 8.98845 20.9582C7.67205 20.9582 6.61857 20.5295 5.82859 19.6743C5.03916 18.8181 4.64311 17.5895 4.64311 15.987V6.30913H0.000671387V16.9957C0.488739 22.1052 3.89212 25.101 8.97582 25.0815C10.5242 25.0752 11.9432 24.8086 13.1702 24.2916V26.3012C13.1702 27.7496 12.7973 28.8746 12.051 29.6761C11.3047 30.4761 10.2839 30.8769 8.98845 30.8769C7.67205 30.8769 6.61857 30.4482 5.82859 29.5931C5.03916 28.7368 4.64311 27.5083 4.64311 25.9057V24.9916H0.000671387V26.9145C0.488739 32.024 3.89212 35.0197 8.97582 35.0003C14.0722 34.9797 17.7785 32.1397 17.7785 26.8282V16.9095V16.9094Z" fill="white"/>
<path d="M29.7863 32.1673C30.3751 32.1673 30.7996 31.8524 30.957 31.4621H30.9639V32.3247C30.9639 33.0024 30.7105 33.2625 29.9848 33.2625C29.2729 33.2625 28.9922 33.0229 28.9922 32.4684H28.5061C28.5061 33.2488 29.1155 33.7007 29.978 33.7007C30.8681 33.7007 31.4568 33.242 31.4568 32.3247V29.0866H31.0186V29.7439H30.9913C30.8407 29.3126 30.3889 29.0182 29.7932 29.0182C28.8485 29.0182 28.3214 29.6344 28.3214 30.5928C28.3214 31.5512 28.8553 32.1673 29.7864 32.1673H29.7863ZM28.8142 30.5928C28.8142 29.7028 29.2318 29.4427 29.8753 29.4427C30.5052 29.4427 30.9639 29.7918 30.9639 30.49V30.6954C30.9639 31.3937 30.512 31.7428 29.9027 31.7428C29.2454 31.7428 28.8142 31.4895 28.8142 30.5928ZM32.6891 28.6349V27.8818H32.203V28.6349H32.6891ZM32.6891 32.4685V29.0456H32.203V32.4685H32.6891ZM34.0514 32.4685V29.5112H35.003V29.0867H34.0445V28.7923C34.0445 28.45 34.2225 28.2857 34.6127 28.2857H35.003V27.8818H34.7018C33.9556 27.8818 33.5653 28.2584 33.5653 28.9566V29.0866H33.0656V29.5111H33.5653V32.4684H34.0514V32.4685ZM36.2627 32.4753C36.5091 32.4753 36.7213 32.4411 36.8377 32.4205V32.0235H36.3927C35.9546 32.0235 35.7697 31.9345 35.7697 31.5375V29.5112H36.8377V29.0867H35.7697V28.2242H35.4001L35.2837 29.0867H34.7087V29.5112H35.2769V31.5101C35.2769 32.2289 35.6397 32.4753 36.2627 32.4753H36.2627ZM40.0553 28.3063H40.8837V27.8545H40.1375C39.2133 27.8545 38.6314 28.2447 38.6314 29.0183C38.6314 29.5249 38.912 29.9356 39.4666 30.0383V30.0725C38.8573 30.1889 38.4876 30.5996 38.4876 31.2363C38.4876 32.0851 39.0901 32.537 40.1238 32.537C41.2808 32.537 41.8764 31.9825 41.8764 31.0446V30.2848H42.6568V29.8672H41.8764V29.0868H41.3903V29.8672H40.0964C39.4734 29.8672 39.1174 29.6344 39.1174 29.0868C39.1174 28.5391 39.3913 28.3064 40.0553 28.3064L40.0553 28.3063ZM40.1444 32.0851C39.2681 32.0851 38.9805 31.825 38.9805 31.1951C38.9805 30.5448 39.3433 30.2847 40.0759 30.2847H41.3903V31.0445C41.3903 31.777 41.0959 32.085 40.1443 32.085L40.1444 32.0851ZM45.5938 32.4685L46.3605 30.3326L46.6139 29.5317H46.6549L46.9082 30.3326L47.6681 32.4685H48.3117L49.1811 29.0867H48.6745L48.1405 31.291L48.0036 32.0235H47.9625L47.7503 31.291L46.963 29.0867H46.3126L45.539 31.291L45.3131 32.0235H45.272L45.1351 31.291L44.6011 29.0867H44.0808L44.9503 32.4685H45.5937H45.5938ZM50.0506 28.6349V27.8818H49.5645V28.6349H50.0506ZM50.0506 32.4685V29.0456H49.5645V32.4685H50.0506ZM52.1455 32.537C52.9259 32.537 53.4188 32.181 53.4188 31.5786C53.4188 31.0172 53.0286 30.7571 52.4398 30.6475L51.8648 30.538C51.3582 30.4421 51.187 30.3258 51.187 29.9835C51.187 29.6412 51.3787 29.4427 51.9948 29.4427C52.7205 29.4427 52.878 29.7507 52.878 30.1546V30.2094H53.3504V30.1752C53.3504 29.4153 52.7822 29.0182 52.0086 29.0182C51.2076 29.0182 50.7146 29.4084 50.7146 29.9903C50.7146 30.5859 51.1117 30.8392 51.6594 30.9419L52.2208 31.0377C52.7342 31.1336 52.9465 31.2568 52.9465 31.5991C52.9465 31.9414 52.7822 32.1194 52.1523 32.1194C51.3855 32.1194 51.1939 31.8934 51.1939 31.4279V31.3458H50.7146V31.3595C50.7146 32.1468 51.2212 32.537 52.1454 32.537H52.1455ZM54.5485 32.4685V30.5243C54.5485 29.7645 54.9044 29.4496 55.5822 29.4496C56.2668 29.4496 56.5133 29.7713 56.5133 30.5038V32.4685H56.9993V30.3806C56.9993 29.607 56.6228 29.0183 55.7396 29.0183C55.055 29.0183 54.7059 29.3948 54.5758 29.7166H54.5485V27.8819H54.0555V32.4685H54.5485V32.4685ZM58.2864 32.4685V27.8818H57.7935V32.4685H58.2864ZM59.5187 28.6349V27.8818H59.0326V28.6349H59.5187ZM59.5187 32.4685V29.0456H59.0326V32.4685H59.5187ZM61.6135 32.537C62.394 32.537 62.8869 32.181 62.8869 31.5786C62.8869 31.0172 62.4967 30.7571 61.9079 30.6475L61.3329 30.538C60.8262 30.4421 60.6551 30.3258 60.6551 29.9835C60.6551 29.6412 60.8468 29.4427 61.4629 29.4427C62.1886 29.4427 62.3461 29.7507 62.3461 30.1546V30.2094H62.8185V30.1752C62.8185 29.4153 62.2502 29.0182 61.4767 29.0182C60.6757 29.0182 60.1827 29.4084 60.1827 29.9903C60.1827 30.5859 60.5798 30.8392 61.1275 30.9419L61.6888 31.0377C62.2023 31.1336 62.4145 31.2568 62.4145 31.5991C62.4145 31.9414 62.2502 32.1194 61.6203 32.1194C60.8536 32.1194 60.6619 31.8934 60.6619 31.4279V31.3458H60.1827V31.3595C60.1827 32.1468 60.6893 32.537 61.6135 32.537H61.6135ZM64.7833 32.4753C65.0298 32.4753 65.242 32.4411 65.3583 32.4205V32.0235H64.9133C64.4752 32.0235 64.2904 31.9345 64.2904 31.5375V29.5112H65.3583V29.0867H64.2904V28.2242H63.9207L63.8043 29.0867H63.2293V29.5112H63.7975V31.5101C63.7975 32.2289 64.1603 32.4753 64.7833 32.4753H64.7833Z" fill="#FF6600"/>
</g>
<defs>
<clipPath id="clip0_15107_146747">
<rect width="65.596" height="35" fill="white"/>
</clipPath>
</defs>
</svg>
