<svg width="66" height="35" viewBox="0 0 66 35" fill="none" xmlns="http://www.w3.org/2000/svg">
<path d="M44.9079 0V24.8081H40.181V0H44.9079Z" fill="#310ECA"/>
<path fill-rule="evenodd" clip-rule="evenodd" d="M65.5958 14.8184C65.5958 15.2875 65.5395 15.824 65.428 16.4272H51.8167H47.2199C47.2005 16.1322 47.1905 15.8303 47.1905 15.5221C47.1905 13.5777 47.5813 11.8847 48.3639 10.4431C49.1459 9.00153 50.2409 7.90069 51.6494 7.14072C53.0574 6.38126 54.6662 6.00098 56.477 6.00098C58.3094 6.00098 59.913 6.38126 61.2878 7.14072C62.6621 7.90065 63.724 8.9457 64.4724 10.2753C65.2213 11.6054 65.5958 13.1196 65.5958 14.8184V14.8184ZM51.894 13.6208H60.8296C60.7566 12.4564 60.3621 11.5481 59.6447 10.8959C58.7843 10.1133 57.7282 9.72255 56.477 9.72255C55.2026 9.72255 54.1302 10.1133 53.2582 10.8959C52.5318 11.5481 52.0769 12.4564 51.8939 13.6208H51.894Z" fill="#310ECA"/>
<path fill-rule="evenodd" clip-rule="evenodd" d="M52.1029 18.281C52.327 19.0279 52.6783 19.6279 53.1579 20.0813C53.9847 20.8639 55.0129 21.2547 56.2421 21.2547C57.3376 21.2547 58.248 20.9865 58.9743 20.45C59.6985 19.9162 60.1614 19.1925 60.3639 18.281H65.3587C65.1126 19.5733 64.5877 20.7325 63.7856 21.7575C62.981 22.7857 61.9469 23.5905 60.6842 24.1716C59.4214 24.7527 58.0192 25.0431 56.4772 25.0431C54.6663 25.0431 53.0575 24.6575 51.6496 23.8865C50.2411 23.1155 49.1461 22.0147 48.364 20.5841C47.9779 19.8788 47.6876 19.1115 47.492 18.281H52.1029Z" fill="#FF6600"/>
<path fill-rule="evenodd" clip-rule="evenodd" d="M37.866 16.9093V6.30859H33.258V16.3821C33.258 17.8309 32.8846 18.9557 32.1387 19.7565C31.3919 20.5572 30.3714 20.9581 29.0764 20.9581C27.7595 20.9581 26.7061 20.5298 25.9163 19.6741C25.1264 18.8184 24.731 17.5893 24.731 15.9868V6.30859H20.0883V16.9954C20.5761 22.1049 23.9797 25.1012 29.0627 25.0811C34.1594 25.061 37.866 22.2202 37.866 16.9093Z" fill="#310ECA"/>
<path fill-rule="evenodd" clip-rule="evenodd" d="M17.7778 16.9089V16.2273V6.30859H13.1695V16.2273V16.382C13.1695 17.8304 12.7966 18.9554 12.0503 19.7569C11.304 20.5569 10.2832 20.9577 8.98778 20.9577C7.67138 20.9577 6.6179 20.529 5.82792 19.6738C5.03849 18.8176 4.64244 17.589 4.64244 15.9865V6.30864H0V16.9952C0.488068 22.1048 3.89145 25.1005 8.97515 25.081C10.5235 25.0747 11.9425 24.8081 13.1695 24.2911V26.3007C13.1695 27.7491 12.7966 28.8742 12.0503 29.6757C11.304 30.4756 10.2832 30.8764 8.98778 30.8764C7.67138 30.8764 6.6179 30.4477 5.82792 29.5926C5.03849 28.7364 4.64244 27.5078 4.64244 25.9052V24.9911H0V26.914C0.488068 32.0235 3.89145 35.0192 8.97515 34.9998C14.0715 34.9793 17.7778 32.1392 17.7778 26.8277V16.909V16.9089Z" fill="#310ECA"/>
<path d="M29.7857 32.1668C30.3745 32.1668 30.7989 31.8519 30.9563 31.4617H30.9632V32.3242C30.9632 33.0019 30.7099 33.262 29.9842 33.262C29.2722 33.262 28.9915 33.0224 28.9915 32.4679H28.5055C28.5055 33.2483 29.1148 33.7002 29.9773 33.7002C30.8674 33.7002 31.4561 33.2415 31.4561 32.3242V29.0862H31.018V29.7434H30.9906C30.84 29.3121 30.3882 29.0177 29.7926 29.0177C28.8478 29.0177 28.3207 29.6339 28.3207 30.5923C28.3207 31.5507 28.8547 32.1668 29.7857 32.1668H29.7857ZM28.8135 30.5923C28.8135 29.7023 29.2311 29.4422 29.8747 29.4422C30.5045 29.4422 30.9632 29.7913 30.9632 30.4896V30.6949C30.9632 31.3932 30.5114 31.7424 29.902 31.7424C29.2448 31.7424 28.8135 31.4891 28.8135 30.5923ZM32.6884 28.6344V27.8814H32.2023V28.6344H32.6884ZM32.6884 32.468V29.0451H32.2023V32.468H32.6884ZM34.0507 32.468V29.5107H35.0023V29.0862H34.0439V28.7918C34.0439 28.4495 34.2219 28.2853 34.6121 28.2853H35.0023V27.8814H34.7011C33.9549 27.8814 33.5646 28.2579 33.5646 28.9561V29.0862H33.0649V29.5106H33.5646V32.4679H34.0507V32.468ZM36.262 32.4748C36.5085 32.4748 36.7207 32.4406 36.837 32.4201V32.023H36.3921C35.9539 32.023 35.7691 31.934 35.7691 31.537V29.5107H36.8371V29.0862H35.7691V28.2237H35.3994L35.283 29.0862H34.708V29.5107H35.2762V31.5096C35.2762 32.2284 35.639 32.4748 36.262 32.4748H36.262ZM40.0547 28.3058H40.883V27.854H40.1368C39.2126 27.854 38.6307 28.2442 38.6307 29.0178C38.6307 29.5244 38.9114 29.9351 39.4659 30.0378V30.072C38.8566 30.1884 38.4869 30.5991 38.4869 31.2358C38.4869 32.0846 39.0894 32.5365 40.1231 32.5365C41.2801 32.5365 41.8757 31.982 41.8757 31.0441V30.2843H42.6562V29.8667H41.8757V29.0863H41.3897V29.8667H40.0958C39.4728 29.8667 39.1167 29.634 39.1167 29.0863C39.1167 28.5387 39.3906 28.3059 40.0546 28.3059L40.0547 28.3058ZM40.1437 32.0846C39.2674 32.0846 38.9798 31.8245 38.9798 31.1946C38.9798 30.5443 39.3427 30.2842 40.0752 30.2842H41.3896V31.044C41.3896 31.7765 41.0952 32.0846 40.1436 32.0846L40.1437 32.0846ZM45.5931 32.468L46.3599 30.3321L46.6132 29.5312H46.6543L46.9075 30.3321L47.6674 32.468H48.311L49.1804 29.0862H48.6738L48.1398 31.2905L48.0029 32.023H47.9619L47.7496 31.2905L46.9623 29.0862H46.3119L45.5383 31.2905L45.3124 32.023H45.2714L45.1344 31.2905L44.6004 29.0862H44.0801L44.9496 32.468H45.5931H45.5931ZM50.05 28.6344V27.8814H49.5639V28.6344H50.05ZM50.05 32.468V29.0451H49.5639V32.468H50.05ZM52.1448 32.5365C52.9253 32.5365 53.4182 32.1805 53.4182 31.5781C53.4182 31.0167 53.028 30.7566 52.4392 30.647L51.8641 30.5375C51.3575 30.4416 51.1864 30.3253 51.1864 29.983C51.1864 29.6407 51.378 29.4422 51.9942 29.4422C52.7199 29.4422 52.8773 29.7502 52.8773 30.1541V30.2089H53.3497V30.1747C53.3497 29.4148 52.7815 29.0177 52.0079 29.0177C51.2069 29.0177 50.714 29.4079 50.714 29.9898C50.714 30.5854 51.111 30.8387 51.6587 30.9414L52.2201 31.0372C52.7336 31.1331 52.9458 31.2563 52.9458 31.5986C52.9458 31.9409 52.7815 32.1189 52.1516 32.1189C51.3849 32.1189 51.1932 31.893 51.1932 31.4274V31.3453H50.7139V31.359C50.7139 32.1463 51.2205 32.5365 52.1448 32.5365H52.1448ZM54.5478 32.468V30.5238C54.5478 29.764 54.9038 29.4491 55.5815 29.4491C56.2661 29.4491 56.5126 29.7708 56.5126 30.5033V32.468H56.9986V30.3801C56.9986 29.6066 56.6221 29.0178 55.739 29.0178C55.0544 29.0178 54.7052 29.3943 54.5751 29.7161H54.5478V27.8814H54.0549V32.4681H54.5478V32.468ZM58.2857 32.468V27.8814H57.7928V32.468H58.2857ZM59.518 28.6344V27.8814H59.0319V28.6344H59.518ZM59.518 32.468V29.0451H59.0319V32.468H59.518ZM61.6129 32.5365C62.3933 32.5365 62.8862 32.1805 62.8862 31.5781C62.8862 31.0167 62.496 30.7566 61.9072 30.647L61.3322 30.5375C60.8256 30.4416 60.6544 30.3253 60.6544 29.983C60.6544 29.6407 60.8461 29.4422 61.4622 29.4422C62.1879 29.4422 62.3454 29.7502 62.3454 30.1541V30.2089H62.8178V30.1747C62.8178 29.4148 62.2496 29.0177 61.476 29.0177C60.675 29.0177 60.182 29.4079 60.182 29.9898C60.182 30.5854 60.5791 30.8387 61.1268 30.9414L61.6882 31.0372C62.2016 31.1331 62.4139 31.2563 62.4139 31.5986C62.4139 31.9409 62.2496 32.1189 61.6197 32.1189C60.8529 32.1189 60.6613 31.893 60.6613 31.4274V31.3453H60.182V31.359C60.182 32.1463 60.6886 32.5365 61.6128 32.5365H61.6129ZM64.7826 32.4748C65.0291 32.4748 65.2413 32.4406 65.3576 32.4201V32.023H64.9127C64.4746 32.023 64.2897 31.934 64.2897 31.537V29.5107H65.3577V29.0862H64.2897V28.2237H63.9201L63.8036 29.0862H63.2286V29.5107H63.7968V31.5096C63.7968 32.2284 64.1597 32.4748 64.7827 32.4748H64.7826Z" fill="#FF6600"/>
</svg>
