<svg width="202" height="112" viewBox="0 0 202 112" fill="none" xmlns="http://www.w3.org/2000/svg">
<g clip-path="url(#clip0_21064_176552)">
<path fill-rule="evenodd" clip-rule="evenodd" d="M83.5399 40.2236C83.2368 37.6501 82.4869 35.166 80.8758 32.9222C79.1927 30.5534 76.8893 29.2874 73.9668 29.7057C67.9495 30.3895 62.2528 33.97 61.0613 41.2222C60.8631 42.334 60.7634 43.4718 60.6993 44.6731C60.6559 45.8413 60.7239 46.9681 60.891 48.0618C59.0415 48.1227 57.1816 48.0482 55.3082 47.8384C53.8622 47.6221 50.8995 47.6221 49.3816 47.4052C49.3091 46.9111 49.2365 46.5498 49.2365 46.1159C49.5979 41.647 49.8874 37.1055 50.3931 32.7078C50.5382 31.0578 50.9714 29.4674 51.4778 27.8892C51.8391 26.6601 52.7063 25.7924 54.3692 25.5761C54.7306 25.9374 55.0919 26.3707 55.4533 26.6601C56.6105 27.5279 58.0559 27.7448 59.1406 27.094C60.2246 26.5157 60.6585 25.2148 60.1521 23.9863C59.6463 22.3959 58.4904 21.1674 56.7549 20.3722C54.4411 19.3607 51.9836 19.2156 49.4535 19.5776C44.5377 20.4447 40.9962 23.1192 38.4661 26.8058C36.1529 30.2639 34.635 34.082 33.8405 37.9733C33.189 41.2863 32.8276 44.5993 32.3219 47.9841C31.888 48.2011 27.7403 48.2386 27.0254 48.4174C26.293 48.6 25.4932 48.7502 24.8573 49.0682C23.4695 49.7617 22.833 51.0206 23.1943 52.1765C23.555 53.3324 24.7135 54.0092 26.302 54.0558C27.1717 54.0804 31.5986 54.0558 32.6107 54.0558C33.3017 64.4474 34.8371 75.8855 34.7095 85.9689C34.5936 95.1483 32.8348 102.873 26.6083 101.311C23.125 98.9236 19.9325 98.8013 17.0767 101.311C9.23585 113.223 28.1839 118.45 40.2722 99.408C49.5351 84.8169 48.9477 70.0198 48.9477 53.6219C49.9599 53.6944 50.7545 53.6944 51.6216 53.767C55.1852 53.9755 58.5377 53.9302 61.8306 53.6116L61.8377 53.6109L61.8591 53.609L61.894 53.6051L61.9335 53.6012L61.9426 53.5999L62.0041 53.5941C68.8982 52.8655 84.6977 50.1056 83.5399 40.2236ZM63.1568 54.6451C63.7293 55.7175 64.3846 56.7678 65.1047 57.8033C67.2093 60.7647 69.5814 63.3226 72.8523 65.119C77.9779 67.6885 83.0095 66.734 86.7519 62.936C90.0007 59.5867 90.4094 55.1936 89.6161 50.737C89.4121 49.3563 88.3008 48.5747 87.0005 48.4847C85.5396 48.4018 84.4089 49.0468 83.8339 50.3724C83.5107 50.9727 83.492 51.8158 83.3029 52.5055C83.0762 53.7158 82.9499 54.9533 82.5627 56.1727C81.4767 59.6314 77.228 54.1892 76.6484 51.3399C74.2433 52.4317 69.0744 54.4359 63.1575 54.6451H63.1568ZM75.4912 37.4895C78.913 41.0175 78.8294 42.3198 75.2639 44.7709L75.26 44.7819C73.79 45.5784 72.2857 46.0628 70.727 46.0589C72.8128 45.4754 74.3663 44.6446 74.9809 43.3805C74.6124 41.4754 74.3055 39.6382 75.4912 37.4895Z" fill="white"/>
<path fill-rule="evenodd" clip-rule="evenodd" d="M105.011 81.5342C106.777 81.3483 108.543 81.2557 110.309 80.9773C116.909 79.4898 121.836 75.9573 123.23 68.9861C124.996 60.8066 122.392 54.0213 115.886 48.8161C113.934 47.2354 111.796 46.027 109.565 44.9119C107.334 43.7968 104.825 42.8669 102.501 41.8443C100.828 41.0077 100.548 39.9851 101.478 38.3125C102.501 36.5465 105.383 34.9664 107.613 35.524C109.286 35.8957 110.866 36.7324 112.448 37.3832C113.191 37.7549 113.655 38.4057 114.399 38.7774C116.073 39.5208 117.745 39.5208 119.233 38.3125C120.441 37.3832 120.813 35.6166 120.07 33.7581C119.419 31.9921 118.21 30.412 116.538 29.2043C108.543 23.4409 98.969 23.8133 91.7188 31.1561C85.1187 37.942 86.3271 47.2367 94.3214 52.3486C96.5523 53.9287 98.969 55.2304 101.2 56.7172C102.408 57.4606 103.431 58.1114 104.547 59.0407C105.94 60.1558 106.127 62.2941 104.825 63.5018C103.338 64.9893 101.479 66.0118 99.1542 65.5469C98.3175 65.361 97.4809 64.7102 96.8301 64.1533C94.0416 62.2008 90.8814 62.2941 88.6499 64.4317C86.5123 66.3835 86.419 69.3585 88.0917 72.0537C91.9966 78.1882 97.6661 81.2557 105.01 81.5342H105.011Z" fill="white"/>
<path fill-rule="evenodd" clip-rule="evenodd" d="M126.153 48.46C126.29 48.8285 126.427 49.197 126.389 49.4366C126.617 51.819 126.705 54.3018 126.933 56.6842C127.252 61.0806 128.776 65.2057 131.835 68.6909C134.203 71.2747 137.081 73.1514 140.764 73.7284C146.182 74.4148 150.635 72.994 154.051 69.0108C155.823 66.9302 157.076 64.5425 157.28 61.9341C157.403 60.2763 156.421 59.0291 154.778 58.5143C153.07 58.0869 150.965 58.5829 149.932 59.9202C149.549 60.4505 149.33 61.032 149.023 61.5495C146.344 65.2588 144.918 64.1624 143.955 59.6352C142.963 55.426 142.136 51.2666 141.285 46.9557C141.173 46.7394 141.263 46.3353 141.265 45.8659C142.952 45.6722 144.509 45.6547 146.107 45.397C147.692 45.0635 149.429 44.7054 151.053 44.1316C152.794 43.3047 153.561 41.7758 153.176 40.3556C152.88 38.999 151.618 37.9538 149.732 37.8683C148.021 37.9091 146.247 38.0393 144.562 38.2335C143.029 38.4025 141.583 38.6357 139.909 38.9057C139.602 37.0044 139.321 35.2547 139.051 33.582C138.521 30.7799 138.167 28.1061 137.37 25.5812C136.6 22.7403 134.188 21.3338 131.424 21.6239C128.89 21.8764 126.993 23.665 126.523 26.5506C126.155 29.1073 125.926 31.5635 125.887 34.2225C125.836 36.8056 125.924 39.2891 126.049 42.0005C125.224 42.2109 124.551 42.3981 123.955 42.5723C123.283 42.7581 122.686 42.9323 122.103 43.1829C120.351 43.9341 119.494 45.3989 119.868 46.7433C120.176 48.1757 121.794 49.0072 123.644 48.8654C124.416 48.8181 125.24 48.6077 126.153 48.46Z" fill="white"/>
<path fill-rule="evenodd" clip-rule="evenodd" d="M181.034 38.0878C179.45 36.1341 177.787 34.8422 175.51 34.2386C171.08 32.8327 166.917 33.5276 163.034 35.9476C160.65 37.4331 158.741 39.4808 157.067 41.8101C155.041 44.3596 154.16 47.1752 154.074 50.4766C154.051 55.4532 156.079 59.3976 160.442 62.0714C165.918 65.1545 169.377 62.9372 174.545 60.5133C174.544 61.4951 174.417 62.3706 174.536 63.1535C174.733 64.2563 174.896 65.5022 175.325 66.583C176.084 68.1936 177.936 69.0004 179.732 68.7382C181.458 68.4597 182.689 67.386 183.193 65.5411C185.414 57.6005 187.508 49.5557 189.69 41.4559C189.956 40.3103 190.382 39.1252 190.522 37.8741C190.916 34.8713 188.328 32.6845 185.366 33.7329C184.391 34.0353 183.53 34.8169 182.723 35.6866C182.144 36.2312 181.713 37.1126 181.034 38.0878H181.034ZM176.983 46.4331C174.565 50.0239 171.221 55.9674 166.166 56.6052C165.063 56.8021 164.038 56.3378 163.434 55.3664C161.507 52.2775 169.1 46.5659 172.276 45.5667C173.572 45.1878 174.52 45.3322 176.982 46.4325L176.983 46.4331Z" fill="white"/>
<path fill-rule="evenodd" clip-rule="evenodd" d="M91.2571 7.08965C91.7907 7.64721 92.6429 8.57389 93.3267 9.20657C94.0993 9.92085 95.092 10.5568 95.7778 11.2704C96.8806 12.4192 95.4437 16.8616 95.2131 18.6702C96.8301 18.2364 100.696 15.7387 101.656 15.7412C102.402 15.7438 106.675 18.2487 108.135 18.6702C107.89 16.7366 106.268 12.6271 107.58 11.2775C108.613 10.2155 110.195 9.23765 112.092 7.08965L104.948 6.05547L101.789 0C100.44 1.40977 99.6289 4.58483 98.5928 5.7019C97.6733 6.69333 92.8598 6.7691 91.2571 7.089V7.08965Z" fill="#FFCE42"/>
<path fill-rule="evenodd" clip-rule="evenodd" d="M72.9532 97.0643L77.2156 95.1417C74.6065 90.099 69.2938 89.9216 68.3004 86.4784C67.2086 82.694 71.4781 82.4084 67.6315 73.876L63.3769 75.7941C66.8019 83.3914 61.6161 81.7582 64.0251 88.3344C66.0974 93.9922 70.7968 93.3375 72.9532 97.0637V97.0643Z" fill="#75DF03"/>
<path d="M194.335 18.6286C189.544 20.0099 191.779 26.7874 196.209 25.5389C200.715 24.2684 198.776 17.3484 194.335 18.6286Z" fill="#104A63"/>
<path fill-rule="evenodd" clip-rule="evenodd" d="M153.22 78.2207L153.22 82.8968C158.889 82.5905 161.235 77.8205 164.782 78.3301C168.681 78.8902 167.187 82.8994 176.546 82.8994V78.2323C168.212 78.2323 171.832 74.1759 164.848 73.6695C158.838 73.2337 157.503 77.7868 153.22 78.2213V78.2207Z" fill="#FF6600"/>
<path fill-rule="evenodd" clip-rule="evenodd" d="M2.03806 21.7223L0.000793457 25.9309C5.23708 28.1262 9.42689 24.8546 12.3973 26.8595C15.6624 29.0626 12.5702 32.02 20.9939 36.0985L23.0279 31.8983C15.527 28.2661 20.5535 26.1932 14.487 22.693C9.26824 19.6818 6.08217 23.1981 2.03806 21.7223Z" fill="#F9D75D"/>
<path fill-rule="evenodd" clip-rule="evenodd" d="M161.878 2.14032L165.052 7.31574L155.851 17.5461L152.882 12.2652L161.878 2.14032Z" fill="#FFCE42"/>
<path fill-rule="evenodd" clip-rule="evenodd" d="M192.476 71.2554C192.698 71.4872 193.052 71.8719 193.336 72.1348C193.656 72.4314 194.069 72.6956 194.353 72.9922C194.811 73.4695 194.215 75.3144 194.119 76.0656C194.791 75.8856 196.397 74.8481 196.795 74.8494C197.105 74.8501 198.879 75.8907 199.486 76.0656C199.385 75.2626 198.71 73.5556 199.255 72.9954C199.684 72.5544 200.341 72.1484 201.129 71.256L198.162 70.8267L196.849 68.3115C196.289 68.8969 195.952 70.216 195.522 70.6797C195.14 71.0916 193.141 71.1233 192.476 71.256L192.476 71.2554Z" fill="#FCB900"/>
<path fill-rule="evenodd" clip-rule="evenodd" d="M18.5104 76.8079L21.6848 81.9827L12.4834 92.2137L9.51428 86.9328L18.5104 76.8079Z" fill="#FCB900"/>
<path fill-rule="evenodd" clip-rule="evenodd" d="M41.9299 6.49416C37.1385 7.87544 39.374 14.653 43.8034 13.4044C48.3098 12.1339 46.3704 5.21391 41.9299 6.49416Z" fill="#E1656D"/>
<path fill-rule="evenodd" clip-rule="evenodd" d="M117.925 87.1931C113.133 88.5744 115.369 95.3519 119.798 94.1034C124.305 92.8328 122.365 85.9128 117.925 87.1931Z" fill="#FCB900"/>
</g>
<defs>
<clipPath id="clip0_21064_176552">
<rect width="201.13" height="112" fill="white"/>
</clipPath>
</defs>
</svg>
