<svg width="15" height="13" viewBox="0 0 15 13" fill="none" xmlns="http://www.w3.org/2000/svg">
<path d="M1.875 6.375V0.375M12.375 12.375V10.125M1.875 12.375V9.375M12.375 7.125V0.375M7.125 2.625V0.375M7.125 12.375V5.625" stroke="#716F6F" stroke-width="0.75" stroke-linecap="round"/>
<path d="M1.875 9.375C2.70343 9.375 3.375 8.70343 3.375 7.875C3.375 7.04657 2.70343 6.375 1.875 6.375C1.04657 6.375 0.375 7.04657 0.375 7.875C0.375 8.70343 1.04657 9.375 1.875 9.375Z" stroke="#716F6F" stroke-width="0.75" stroke-linecap="round"/>
<path d="M7.125 5.625C7.95343 5.625 8.625 4.95343 8.625 4.125C8.625 3.29657 7.95343 2.625 7.125 2.625C6.29657 2.625 5.625 3.29657 5.625 4.125C5.625 4.95343 6.29657 5.625 7.125 5.625Z" stroke="#716F6F" stroke-width="0.75" stroke-linecap="round"/>
<path d="M12.375 10.125C13.2034 10.125 13.875 9.45343 13.875 8.625C13.875 7.79657 13.2034 7.125 12.375 7.125C11.5466 7.125 10.875 7.79657 10.875 8.625C10.875 9.45343 11.5466 10.125 12.375 10.125Z" stroke="#716F6F" stroke-width="0.75" stroke-linecap="round"/>
</svg>
