<svg width="24" height="24" viewBox="0 0 24 24" fill="none" xmlns="http://www.w3.org/2000/svg">
<path d="M19.3595 3.35938H4.63498C3.93082 3.35938 3.35938 3.91737 3.35938 4.60449V19.3926C3.35938 20.0807 3.93082 20.6394 4.63498 20.6394H19.3595C20.0641 20.6394 20.6394 20.0807 20.6394 19.3926V4.60449C20.6394 3.91737 20.0641 3.35938 19.3595 3.35938ZM8.48434 18.0843H5.92018V9.83817H8.48434V18.0843ZM7.20226 8.71066C7.00708 8.71066 6.81382 8.6722 6.63352 8.59748C6.45321 8.52276 6.2894 8.41325 6.15144 8.27519C6.01347 8.13714 5.90407 7.97326 5.82946 7.7929C5.75486 7.61255 5.71653 7.41927 5.71666 7.2241C5.71666 6.83012 5.87316 6.45228 6.15174 6.1737C6.43032 5.89512 6.80816 5.73862 7.20214 5.73862C7.59611 5.73862 7.97395 5.89512 8.25253 6.1737C8.53111 6.45228 8.68762 6.83012 8.68762 7.2241C8.68762 7.61815 8.53116 7.99608 8.25264 8.27483C7.97411 8.55358 7.59631 8.71034 7.20226 8.71066ZM18.0834 18.0843H15.5233V14.0744C15.5233 13.1178 15.5046 11.8878 14.1911 11.8878C12.8571 11.8878 12.6539 12.9296 12.6539 14.0051V18.0846H10.0919V9.83817H12.5507V10.9643H12.5857C12.9279 10.3163 13.7641 9.6325 15.0111 9.6325C17.6046 9.6325 18.0836 11.3399 18.0836 13.5611L18.0834 18.0843Z" fill="white"/>
</svg>
