<svg width="6" height="8" viewBox="0 0 6 8" fill="none" xmlns="http://www.w3.org/2000/svg">
<path d="M2.625 7.5C2.5375 7.5 2.4625 7.475 2.4 7.425C2.3375 7.375 2.29063 7.30937 2.25938 7.22812C2.14063 6.87812 1.99063 6.55 1.80937 6.24375C1.63437 5.9375 1.3875 5.57812 1.06875 5.16562C0.75 4.75312 0.490625 4.35938 0.290625 3.98438C0.096875 3.60937 0 3.15625 0 2.625C0 1.89375 0.253125 1.275 0.759375 0.76875C1.27188 0.25625 1.89375 0 2.625 0C3.35625 0 3.975 0.25625 4.48125 0.76875C4.99375 1.275 5.25 1.89375 5.25 2.625C5.25 3.19375 5.14062 3.66875 4.92188 4.05C4.70938 4.425 4.4625 4.79688 4.18125 5.16562C3.84375 5.61562 3.5875 5.99062 3.4125 6.29062C3.24375 6.58437 3.10313 6.89687 2.99063 7.22812C2.95938 7.31562 2.90938 7.38438 2.84063 7.43438C2.77813 7.47813 2.70625 7.5 2.625 7.5ZM2.625 3.5625C2.8875 3.5625 3.10938 3.47187 3.29062 3.29062C3.47187 3.10938 3.5625 2.8875 3.5625 2.625C3.5625 2.3625 3.47187 2.14062 3.29062 1.95937C3.10938 1.77812 2.8875 1.6875 2.625 1.6875C2.3625 1.6875 2.14062 1.77812 1.95938 1.95937C1.77813 2.14062 1.6875 2.3625 1.6875 2.625C1.6875 2.8875 1.77813 3.10938 1.95938 3.29062C2.14062 3.47187 2.3625 3.5625 2.625 3.5625Z" fill="#97989A"/>
</svg>
