<svg width="34" height="38" viewBox="0 0 34 38" fill="none" xmlns="http://www.w3.org/2000/svg">
<rect x="0.5" y="0.5" width="33" height="37" rx="11.5" stroke="#F0EEFF"/>
<path d="M17 21.25C18.2426 21.25 19.25 20.2426 19.25 19C19.25 17.7574 18.2426 16.75 17 16.75C15.7574 16.75 14.75 17.7574 14.75 19C14.75 20.2426 15.7574 21.25 17 21.25Z" stroke="#254C00" stroke-width="1.125" stroke-miterlimit="10" stroke-linecap="round" stroke-linejoin="round"/>
<path d="M9.5 19.6601V18.3401C9.5 17.5601 10.1375 16.9151 10.925 16.9151C12.2825 16.9151 12.8375 15.9551 12.155 14.7776C11.765 14.1026 11.9975 13.2251 12.68 12.8351L13.9775 12.0926C14.57 11.7401 15.335 11.9501 15.6875 12.5426L15.77 12.6851C16.445 13.8626 17.555 13.8626 18.2375 12.6851L18.32 12.5426C18.6725 11.9501 19.4375 11.7401 20.03 12.0926L21.3275 12.8351C22.01 13.2251 22.2425 14.1026 21.8525 14.7776C21.17 15.9551 21.725 16.9151 23.0825 16.9151C23.8625 16.9151 24.5075 17.5526 24.5075 18.3401V19.6601C24.5075 20.4401 23.87 21.0851 23.0825 21.0851C21.725 21.0851 21.17 22.0451 21.8525 23.2226C22.2425 23.9051 22.01 24.7751 21.3275 25.1651L20.03 25.9076C19.4375 26.2601 18.6725 26.0501 18.32 25.4576L18.2375 25.3151C17.5625 24.1376 16.4525 24.1376 15.77 25.3151L15.6875 25.4576C15.335 26.0501 14.57 26.2601 13.9775 25.9076L12.68 25.1651C11.9975 24.7751 11.765 23.8976 12.155 23.2226C12.8375 22.0451 12.2825 21.0851 10.925 21.0851C10.1375 21.0851 9.5 20.4401 9.5 19.6601Z" stroke="#254C00" stroke-width="1.125" stroke-miterlimit="10" stroke-linecap="round" stroke-linejoin="round"/>
</svg>
