<svg width="19" height="18" viewBox="0 0 19 18" fill="none" xmlns="http://www.w3.org/2000/svg">
<path d="M8.45287 9.21481L7.17945 8.01413C7.01844 7.85965 6.81733 7.78242 6.57611 7.78242C6.3349 7.78242 6.12617 7.86667 5.94994 8.03519C5.78894 8.18966 5.70843 8.38627 5.70843 8.625C5.70843 8.86373 5.78894 9.06034 5.94994 9.21481L7.83812 11.0264C8.01376 11.1949 8.21868 11.2791 8.45287 11.2791C8.68706 11.2791 8.89198 11.1949 9.06762 11.0264L12.8001 7.44538C12.9757 7.27687 13.0597 7.08026 13.0521 6.85557C13.0445 6.63088 12.9605 6.43428 12.8001 6.26576C12.6244 6.09725 12.416 6.00962 12.1748 6.00288C11.9335 5.99614 11.7248 6.07674 11.5486 6.2447L8.45287 9.21481ZM5.99385 16.8402L4.72043 14.7759L2.30533 14.2703C2.08577 14.2282 1.91013 14.1195 1.7784 13.9442C1.64666 13.769 1.59543 13.5757 1.62471 13.3645L1.86622 10.9842L0.219555 9.17268C0.073185 9.01821 0 8.83565 0 8.625C0 8.41435 0.073185 8.23179 0.219555 8.07732L1.86622 6.26576L1.62471 3.88546C1.59543 3.67482 1.64666 3.48159 1.7784 3.30577C1.91013 3.12995 2.08577 3.02125 2.30533 2.97969L4.72043 2.47414L5.99385 0.409805C6.11095 0.227246 6.27196 0.104228 6.47687 0.0407536C6.68179 -0.022721 6.88671 -0.0120483 7.09163 0.0727718L9.375 0.999614L11.6584 0.0727718C11.8633 -0.0114866 12.0682 -0.0221593 12.2731 0.0407536C12.478 0.103667 12.6391 0.226684 12.7561 0.409805L14.0296 2.47414L16.4447 2.97969C16.6642 3.02182 16.8399 3.13079 16.9716 3.30661C17.1033 3.48243 17.1546 3.67538 17.1253 3.88546L16.8838 6.26576L18.5304 8.07732C18.6768 8.23179 18.75 8.41435 18.75 8.625C18.75 8.83565 18.6768 9.01821 18.5304 9.17268L16.8838 10.9842L17.1253 13.3645C17.1546 13.5752 17.1033 13.7684 16.9716 13.9442C16.8399 14.1201 16.6642 14.2287 16.4447 14.2703L14.0296 14.7759L12.7561 16.8402C12.6391 17.0228 12.478 17.1458 12.2731 17.2092C12.0682 17.2727 11.8633 17.262 11.6584 17.1772L9.375 16.2504L7.09163 17.1772C6.88671 17.2615 6.68179 17.2722 6.47687 17.2092C6.27196 17.1463 6.11095 17.0233 5.99385 16.8402Z" fill="#22DED3"/>
</svg>
