<svg width="38" height="38" viewBox="0 0 38 38" fill="none" xmlns="http://www.w3.org/2000/svg">
<g clip-path="url(#clip0_15139_165624)">
<path d="M0.808932 18.7712C0.808048 21.9639 1.64228 25.0814 3.22856 27.8292L0.657227 37.2175L10.265 34.6983C12.9224 36.145 15.8999 36.903 18.9255 36.9032H18.9335C28.9217 36.9032 37.0524 28.7755 37.0567 18.7855C37.0586 13.9446 35.1751 9.39253 31.753 5.96782C28.3315 2.5434 23.7811 0.656506 18.9327 0.654297C8.94329 0.654297 0.813203 8.78158 0.809079 18.7712" fill="url(#paint0_linear_15139_165624)"/>
<path d="M0.16248 18.7677C0.161449 22.0753 1.02558 25.3043 2.66842 28.1504L0.00488281 37.8753L9.9572 35.2659C12.6994 36.761 15.7868 37.5492 18.9284 37.5504H18.9365C29.2831 37.5504 37.7059 29.1303 37.7103 18.7827C37.7121 13.7679 35.7608 9.05219 32.2165 5.50479C28.6718 1.95783 23.9586 0.00303858 18.9365 0.000976562C8.58817 0.000976562 0.166604 8.41989 0.16248 18.7677ZM6.08945 27.6603L5.71784 27.0704C4.15572 24.5865 3.33121 21.7162 3.33239 18.7689C3.33563 10.168 10.3353 3.17059 18.9424 3.17059C23.1107 3.17236 27.0279 4.79722 29.9742 7.74532C32.9204 10.6937 34.5416 14.613 34.5406 18.7815C34.5367 27.3823 27.5369 34.3807 18.9365 34.3807H18.9304C16.13 34.3792 13.3835 33.6271 10.9884 32.206L10.4184 31.868L4.51245 33.4164L6.08945 27.6603Z" fill="url(#paint1_linear_15139_165624)"/>
<path d="M14.2447 10.9201C13.8932 10.139 13.5234 10.1232 13.1892 10.1095C12.9156 10.0978 12.6027 10.0986 12.2902 10.0986C11.9773 10.0986 11.4691 10.2163 11.0394 10.6854C10.6093 11.155 9.39746 12.2897 9.39746 14.5975C9.39746 16.9054 11.0784 19.1359 11.3128 19.4492C11.5474 19.7618 14.5579 24.6494 19.3259 26.5297C23.2885 28.0922 24.0949 27.7815 24.9549 27.7031C25.8151 27.625 27.7304 26.5687 28.1212 25.4733C28.5122 24.3781 28.5122 23.4393 28.395 23.2431C28.2777 23.0477 27.9649 22.9303 27.4958 22.6958C27.0267 22.4613 24.7203 21.3263 24.2904 21.1698C23.8603 21.0133 23.5476 20.9353 23.2348 21.405C22.9219 21.8739 22.0236 22.9303 21.7498 23.2431C21.4763 23.5567 21.2025 23.5957 20.7335 23.3611C20.2641 23.1257 18.7534 22.631 16.9611 21.0331C15.5666 19.7897 14.6251 18.2542 14.3515 17.7845C14.0778 17.3156 14.3221 17.0613 14.5574 16.8276C14.7681 16.6174 15.0266 16.2798 15.2614 16.006C15.4953 15.7321 15.5733 15.5366 15.7298 15.2238C15.8863 14.9107 15.808 14.6367 15.6909 14.4021C15.5733 14.1674 14.6618 11.8475 14.2447 10.9201Z" fill="white"/>
</g>
<defs>
<linearGradient id="paint0_linear_15139_165624" x1="1820.63" y1="3656.98" x2="1820.63" y2="0.654297" gradientUnits="userSpaceOnUse">
<stop stop-color="#1FAF38"/>
<stop offset="1" stop-color="#60D669"/>
</linearGradient>
<linearGradient id="paint1_linear_15139_165624" x1="1885.28" y1="3787.44" x2="1885.28" y2="0.000976562" gradientUnits="userSpaceOnUse">
<stop stop-color="#F9F9F9"/>
<stop offset="1" stop-color="white"/>
</linearGradient>
<clipPath id="clip0_15139_165624">
<rect width="37.715" height="38" fill="white"/>
</clipPath>
</defs>
</svg>
