<svg width="29" height="35" viewBox="0 0 29 35" fill="none" xmlns="http://www.w3.org/2000/svg">
<g clip-path="url(#clip0_15139_165613)">
<path fill-rule="evenodd" clip-rule="evenodd" d="M5.91377 28.8801H14.727C15.0428 28.8801 15.3012 29.139 15.3012 29.4554V29.7287C15.3012 30.0451 15.0428 30.3039 14.727 30.3039H5.91377C5.59798 30.3039 5.33962 30.0451 5.33962 29.7287V29.4554C5.33962 29.139 5.59798 28.8801 5.91377 28.8801ZM5.64105 0.000710296H14.9854C18.0858 0.000710296 20.6264 2.54635 20.6264 5.6529V8.05473H18.3442V5.20706C18.3442 3.66816 17.081 2.40253 15.5452 2.40253H14.8562V2.41691V3.17917C14.8562 4.0421 14.1529 4.74683 13.2916 4.74683H7.34915C6.48792 4.74683 5.78458 4.0421 5.78458 3.17917V2.41691V2.40253H5.0956C3.55974 2.40253 2.29661 3.66816 2.29661 5.20706V28.8801C2.29661 30.4334 3.55974 31.6846 5.0956 31.6846H15.5452C17.081 31.6846 18.3442 30.419 18.3442 28.8801V25.7017H20.6264V28.4343C20.6264 31.5408 18.0858 34.0865 14.9854 34.0865H5.64105C2.54062 34.0865 0 31.5408 0 28.4343V5.63852C0 2.53197 2.54062 -0.0136719 5.64105 -0.0136719V0.000710296ZM12.5596 1.99983C12.9902 1.99983 13.349 2.345 13.349 2.79085C13.349 3.22232 13.0045 3.58187 12.5596 3.58187C12.129 3.58187 11.7701 3.2367 11.7701 2.79085C11.7701 2.35939 12.1146 1.99983 12.5596 1.99983ZM8.13861 1.99983H9.66011C10.0046 1.99983 10.2917 2.28748 10.2917 2.63265V2.93467C10.2917 3.27984 10.0046 3.56749 9.66011 3.56749H8.13861C7.79412 3.56749 7.50704 3.27984 7.50704 2.93467V2.63265C7.50704 2.28748 7.79412 1.99983 8.13861 1.99983Z" fill="white"/>
<path d="M12.4699 19.9769C12.2402 19.9769 12.0106 19.9626 11.7665 19.9194C11.5369 19.8763 11.3072 19.8331 11.0919 19.7612C10.8766 19.6893 10.69 19.6174 10.5178 19.5167C10.4029 19.4448 10.3168 19.3729 10.2594 19.2578C10.2163 19.1572 10.1876 19.0421 10.202 18.9414C10.2163 18.8264 10.2594 18.7401 10.3312 18.6538C10.4029 18.5675 10.4891 18.51 10.5895 18.4956C10.69 18.4668 10.8192 18.4956 10.9484 18.5531C11.178 18.6825 11.4077 18.7688 11.6804 18.8264C11.9388 18.8839 12.2115 18.9127 12.4699 18.9127C12.8718 18.9127 13.1445 18.8551 13.3168 18.7257C13.489 18.5963 13.5751 18.4524 13.5751 18.2655C13.5751 18.1073 13.5177 17.9778 13.4029 17.8915C13.288 17.8052 13.0727 17.7189 12.7713 17.6614L11.8527 17.4601C11.3359 17.345 10.9484 17.158 10.69 16.8992C10.4316 16.6403 10.3168 16.2951 10.3168 15.8636C10.3168 15.5904 10.3742 15.3459 10.4891 15.1158C10.6039 14.8857 10.7618 14.6987 10.9627 14.5405C11.1637 14.3823 11.422 14.2528 11.6948 14.1665C11.9818 14.0803 12.2976 14.0371 12.6421 14.0371C12.9436 14.0371 13.245 14.0803 13.5321 14.1522C13.8191 14.2241 14.0775 14.3391 14.3072 14.4686C14.422 14.5405 14.4938 14.6124 14.5368 14.7131C14.5799 14.8137 14.5942 14.9144 14.5799 15.0151C14.5655 15.1158 14.5225 15.2021 14.4651 15.274C14.3933 15.3459 14.3072 15.4034 14.2067 15.4178C14.1062 15.4322 13.977 15.4178 13.8335 15.3459C13.6612 15.2596 13.4603 15.1877 13.2593 15.1445C13.0584 15.1014 12.8574 15.0726 12.6421 15.0726C12.4125 15.0726 12.2259 15.1014 12.0536 15.1589C11.8957 15.2164 11.7665 15.3027 11.6804 15.4178C11.5943 15.5329 11.5512 15.6479 11.5512 15.7917C11.5512 15.9499 11.6086 16.0794 11.7235 16.1801C11.8383 16.2807 12.0393 16.3526 12.312 16.4102L13.2306 16.6115C13.7617 16.7266 14.1636 16.9135 14.422 17.158C14.6804 17.4169 14.8095 17.7477 14.8095 18.1648C14.8095 18.4381 14.7521 18.6826 14.6517 18.8983C14.5368 19.114 14.3789 19.3154 14.178 19.4592C13.977 19.6174 13.7187 19.7324 13.4316 19.8187C13.1445 19.905 12.8144 19.9482 12.4555 19.9482L12.4699 19.9769Z" fill="#FEFEFE"/>
<path d="M16.2324 19.9628C16.0458 19.9628 15.9022 19.9053 15.8017 19.8046C15.7013 19.704 15.6582 19.5601 15.6582 19.3732V14.6414C15.6582 14.4545 15.7156 14.3106 15.8161 14.21C15.9166 14.1093 16.0745 14.0518 16.2467 14.0518C16.4046 14.0518 16.5338 14.0805 16.6343 14.1524C16.7347 14.21 16.8209 14.325 16.8926 14.4688L18.773 17.9206H18.5003L20.3806 14.4688C20.4667 14.3106 20.5529 14.21 20.639 14.1524C20.7394 14.0949 20.8543 14.0518 21.0122 14.0518C21.1988 14.0518 21.3423 14.1093 21.4428 14.21C21.5433 14.3106 21.5863 14.4545 21.5863 14.6414V19.3732C21.5863 19.5601 21.5433 19.704 21.4428 19.8046C21.3423 19.9053 21.1988 19.9628 21.0122 19.9628C20.8256 19.9628 20.682 19.9053 20.5816 19.8046C20.4811 19.704 20.438 19.5601 20.438 19.3732V16.0653H20.6103L19.0888 18.7835C19.017 18.8842 18.9596 18.9705 18.8878 19.0136C18.816 19.0711 18.7156 19.0855 18.6007 19.0855C18.4859 19.0855 18.3854 19.0568 18.3137 18.9992C18.2419 18.9417 18.1701 18.8698 18.1127 18.7691L16.5768 16.0365H16.7778V19.3588C16.7778 19.5457 16.7347 19.6896 16.6343 19.7902C16.5338 19.8909 16.3902 19.9484 16.2036 19.9484L16.2324 19.9628Z" fill="#FEFEFE"/>
<path d="M24.8302 19.9769C24.6006 19.9769 24.3709 19.9626 24.1269 19.9194C23.8972 19.8763 23.6676 19.8331 23.4523 19.7612C23.237 19.6893 23.0504 19.6174 22.8781 19.5167C22.7633 19.4448 22.6772 19.3729 22.6197 19.2578C22.5767 19.1572 22.548 19.0421 22.5623 18.9414C22.5767 18.8264 22.6197 18.7401 22.6915 18.6538C22.7633 18.5675 22.8494 18.51 22.9499 18.4956C23.0504 18.4668 23.1795 18.4956 23.3087 18.5531C23.5384 18.6825 23.768 18.7688 24.0408 18.8264C24.2991 18.8839 24.5719 18.9127 24.8302 18.9127C25.2321 18.9127 25.5049 18.8551 25.6771 18.7257C25.8493 18.5963 25.9355 18.4524 25.9355 18.2655C25.9355 18.1073 25.8781 17.9778 25.7632 17.8915C25.6484 17.8052 25.4331 17.7189 25.1317 17.6614L24.213 17.4601C23.6963 17.345 23.3087 17.158 23.0504 16.8992C22.792 16.6403 22.6772 16.2951 22.6772 15.8636C22.6772 15.5904 22.7346 15.3459 22.8494 15.1158C22.9642 14.8857 23.1221 14.6987 23.3231 14.5405C23.524 14.3823 23.7824 14.2528 24.0551 14.1665C24.3422 14.0803 24.658 14.0371 25.0025 14.0371C25.3039 14.0371 25.6053 14.0803 25.8924 14.1522C26.1795 14.2241 26.4379 14.3391 26.6675 14.4686C26.7823 14.5405 26.8541 14.6124 26.8972 14.7131C26.9402 14.8137 26.9546 14.9144 26.9402 15.0151C26.9259 15.1158 26.8828 15.2021 26.8254 15.274C26.7536 15.3459 26.6675 15.4034 26.567 15.4178C26.4666 15.4322 26.3374 15.4178 26.1938 15.3459C26.0216 15.2596 25.8206 15.1877 25.6197 15.1445C25.4187 15.1014 25.2178 15.0726 25.0025 15.0726C24.7728 15.0726 24.5862 15.1014 24.414 15.1589C24.2561 15.2164 24.1269 15.3027 24.0408 15.4178C23.9546 15.5329 23.9116 15.6479 23.9116 15.7917C23.9116 15.9499 23.969 16.0794 24.0838 16.1801C24.1987 16.2807 24.3996 16.3526 24.6723 16.4102L25.591 16.6115C26.1221 16.7266 26.524 16.9135 26.7823 17.158C27.0407 17.4169 27.1699 17.7477 27.1699 18.1648C27.1699 18.4381 27.1125 18.6826 27.012 18.8983C26.8972 19.114 26.7393 19.3154 26.5383 19.4592C26.3374 19.6174 26.079 19.7324 25.7919 19.8187C25.5049 19.905 25.1747 19.9482 24.8159 19.9482L24.8302 19.9769Z" fill="#FEFEFE"/>
</g>
<defs>
<clipPath id="clip0_15139_165613">
<rect width="28.9286" height="34.1001" fill="white"/>
</clipPath>
</defs>
</svg>
