<svg width="38" height="38" viewBox="0 0 38 38" fill="none" xmlns="http://www.w3.org/2000/svg">
<path d="M9.5 17.418C9.5 12.9403 9.5 10.6999 10.8918 9.30972C12.2819 7.91797 14.5223 7.91797 19 7.91797H23.75C28.2277 7.91797 30.4681 7.91797 31.8583 9.30972C33.25 10.6999 33.25 12.9403 33.25 17.418V25.3346C33.25 29.8123 33.25 32.0527 31.8583 33.4429C30.4681 34.8346 28.2277 34.8346 23.75 34.8346H19C14.5223 34.8346 12.2819 34.8346 10.8918 33.4429C9.5 32.0527 9.5 29.8123 9.5 25.3346V17.418Z" stroke="white" stroke-width="2.375"/>
<path d="M9.5 30.0846C8.24022 30.0846 7.03204 29.5842 6.14124 28.6934C5.25045 27.8026 4.75 26.5944 4.75 25.3346V15.8346C4.75 9.86389 4.75 6.87772 6.60567 5.02364C8.46133 3.16955 11.4459 3.16797 17.4167 3.16797H23.75C25.0098 3.16797 26.218 3.66841 27.1088 4.55921C27.9996 5.45001 28.5 6.65819 28.5 7.91797" stroke="white" stroke-width="2.375"/>
</svg>
