<svg width="38" height="31" viewBox="0 0 38 31" fill="none" xmlns="http://www.w3.org/2000/svg">
<path fill-rule="evenodd" clip-rule="evenodd" d="M4.26736 0.251929C1.52578 0.865648 -0.0040003 2.57012 7.85642e-06 4.90171L0.0387534 25.8244C0.0414255 27.3064 0.754877 28.495 1.49505 29.2347C2.64005 30.3844 4.86992 31.0209 7.39773 30.9995L33.0486 30.7918C33.591 30.7878 34.0105 30.6806 34.2804 30.6015C36.5357 29.9436 38.0053 28.3235 38 26.1514L37.9372 4.5627C37.9332 3.33526 37.209 2.36644 36.541 1.68841C35.5617 0.695468 33.8008 0.00671025 31.7272 0.00537026L6.78715 1.02733e-05C5.70495 -0.00132972 4.82315 0.12865 4.26736 0.253269V0.251929ZM35.241 5.40957C33.7153 6.22965 32.6304 7.71705 31.3972 8.99406C30.0678 10.3716 28.9883 11.4637 27.6483 12.8452C25.0122 15.56 22.1678 19.3053 18.9572 19.241C14.2583 19.1486 5.68624 7.02159 2.946 5.38009C2.40757 10.1974 2.74025 19.3911 2.85248 24.5434C2.93932 28.554 5.11174 27.7674 8.94086 27.7634H28.2522C36.525 27.7661 35.9358 29.9677 35.241 5.41091V5.40957ZM32.9243 3.11684L5.18656 3.07128C5.91872 4.36706 10.3571 8.57196 11.7426 9.95618C19.4021 17.6143 17.9271 18.7224 26.2013 10.0205C28.3697 7.73849 31.0325 5.42297 32.9243 3.11684Z" fill="#FEFEFE"/>
</svg>
