<svg width="24" height="24" viewBox="0 0 24 24" fill="none" xmlns="http://www.w3.org/2000/svg">
<path d="M9 10.5C9.82843 10.5 10.5 9.82843 10.5 9C10.5 8.17157 9.82843 7.5 9 7.5C8.17157 7.5 7.5 8.17157 7.5 9C7.5 9.82843 8.17157 10.5 9 10.5Z" fill="black"/>
<path d="M15 10.5C15.8284 10.5 16.5 9.82843 16.5 9C16.5 8.17157 15.8284 7.5 15 7.5C14.1716 7.5 13.5 8.17157 13.5 9C13.5 9.82843 14.1716 10.5 15 10.5Z" fill="black"/>
<path d="M12 22.5C6.21 22.5 1.5 17.79 1.5 12C1.5 6.21 6.21 1.5 12 1.5C17.79 1.5 22.5 6.21 22.5 12C22.5 17.79 17.79 22.5 12 22.5ZM12 3C7.035 3 3 7.035 3 12C3 16.965 7.035 21 12 21C16.965 21 21 16.965 21 12C21 7.035 16.965 3 12 3Z" fill="black"/>
<path d="M16.2451 17.25C15.9301 17.25 15.6451 17.055 15.5401 16.755C15.2821 16.0222 14.803 15.3875 14.1689 14.9385C13.5348 14.4895 12.777 14.2484 12.0001 14.2484C11.2232 14.2484 10.4654 14.4895 9.83129 14.9385C9.19721 15.3875 8.71811 16.0222 8.46009 16.755C8.32509 17.145 7.89009 17.355 7.50009 17.205C7.40669 17.1727 7.32071 17.122 7.24724 17.0558C7.17377 16.9897 7.11431 16.9095 7.07235 16.82C7.0304 16.7305 7.00682 16.6335 7.00299 16.5348C6.99917 16.436 7.01519 16.3375 7.05009 16.245C7.78509 14.145 9.78009 12.75 12.0001 12.75C14.2201 12.75 16.2151 14.16 16.9501 16.245C16.991 16.3582 17.0041 16.4797 16.9882 16.599C16.9723 16.7184 16.9279 16.8321 16.8588 16.9307C16.7896 17.0293 16.6978 17.1098 16.5909 17.1653C16.4841 17.2209 16.3655 17.2499 16.2451 17.25Z" fill="black"/>
</svg>
